<svg width="23" height="18" viewBox="0 0 23 18" fill="none" xmlns="http://www.w3.org/2000/svg">
<path d="M14.2581 14.6328C16.1319 12.759 17.1289 10.3619 17.2986 7.91529H22.3898L16.0258 1.55133L9.66186 7.91529H14.7813C14.6187 9.71842 13.8762 11.4791 12.4903 12.865C9.98713 15.3682 6.22532 15.8632 3.22719 14.35L2.10289 16.5774C6.04854 18.5572 10.97 17.9209 14.2581 14.6328Z" fill="white"/>
<path d="M0.606194 4.97507H3.74304L3.74304 8.11192H4.97506L4.97506 4.97507H8.11191V3.74305L4.97506 3.74305V0.606201L3.74304 0.606201L3.74304 3.74305H0.606194L0.606194 4.97507Z" fill="white"/>
<path d="M14.2581 14.6328C16.1319 12.759 17.1289 10.3619 17.2986 7.91529H22.3898L16.0258 1.55133L9.66186 7.91529H14.7813C14.6187 9.71842 13.8762 11.4791 12.4903 12.865C9.98713 15.3682 6.22532 15.8632 3.22719 14.35L2.10289 16.5774C6.04854 18.5572 10.97 17.9209 14.2581 14.6328Z" stroke="white" stroke-width="0.5"/>
<path d="M0.606194 4.97507H3.74304L3.74304 8.11192H4.97506L4.97506 4.97507H8.11191V3.74305L4.97506 3.74305V0.606201L3.74304 0.606201L3.74304 3.74305H0.606194L0.606194 4.97507Z" stroke="white" stroke-width="0.5"/>
</svg>
